<svg class="lg:w-full w-full h-10" viewBox="0 0 713 169" fill="none" xmlns="http://www.w3.org/2000/svg"><path d="M44.2024 4.51867e-05C37.644 -0.00917363 31.6874 1.39199 26.979 4.39168C4.99695 18.3955 -10.405 53.3731 8.56124 86.9526C14.52 97.5027 31.2693 107.812 47.2337 115.619C39.8127 109.761 33.439 103.44 30.458 95.6729C26.4231 85.16 27.1764 73.0194 31.9047 66.0318C42.1451 50.8992 68.969 52.2333 87.0662 72.8552C97.7144 84.9887 105.542 102.68 109.135 118.585C115.592 96.957 114.933 68.5208 107.827 46.4633C98.7027 18.1474 67.6256 0.0329474 44.2024 4.51867e-05Z" fill="#95D4E8"></path><path d="M38.9396 115.3C37.684 115.313 36.3924 115.348 35.0577 115.421C15.958 116.468 10.3497 132.109 12.4719 143.845C14.794 156.685 20.4439 168.145 39.831 168.112C57.845 168.081 101.108 133.017 109.104 118.854C101.94 123.749 92.8898 128.572 83.8771 132.302C64.6889 140.242 45.0755 140.897 37.7122 131.18C34.2091 126.558 37.6784 121.18 47.2036 115.672C44.5981 115.437 41.911 115.269 38.9396 115.3Z" fill="#FDCA60"></path><path d="M145.788 74.0479C137.555 93.116 124.665 108.113 109.183 118.834C110.644 130.308 114.34 137.995 119.666 138.707C129.117 139.971 140.153 118.791 144.307 91.4051C145.229 85.3268 145.662 79.5218 145.788 74.0479Z" fill="#2789B9"></path><path d="M189.44 92V49.12H201.6V55.2C204.4 51.6 208.08 48.32 214.16 48.32C223.44 48.32 228.72 54.32 228.72 64.24V92H216.56V68.08C216.56 62.32 213.92 59.36 209.2 59.36C204.48 59.36 201.6 62.32 201.6 68.08V92H189.44ZM256.404 92.96C243.524 92.96 234.004 83.92 234.004 70.8V70.64C234.004 58.4 242.724 48.32 255.204 48.32C269.524 48.32 276.084 59.44 276.084 71.6C276.084 72.56 276.004 73.6 275.924 74.8H246.084C247.284 80.32 251.124 83.2 256.564 83.2C260.644 83.2 263.524 81.92 266.964 78.8L273.924 84.96C269.844 90 264.164 92.96 256.404 92.96ZM245.924 67.2H264.244C263.524 61.76 260.324 58.08 255.204 58.08C250.084 58.08 246.884 61.68 245.924 67.2ZM289.595 92.32L276.395 49.12H288.715L295.595 75.12L303.675 48.96H314.155L322.315 75.2L329.355 49.12H341.435L328.075 92.32H317.115L308.875 66L300.475 92.32H289.595ZM373.141 92.96C356.661 92.96 344.421 80.24 344.421 64.16V64C344.421 48.08 356.421 35.04 373.621 35.04C384.101 35.04 390.581 38.56 395.701 43.68L387.861 52.72C383.461 48.8 379.221 46.4 373.541 46.4C364.101 46.4 357.301 54.24 357.301 63.84V64C357.301 73.6 363.941 81.6 373.541 81.6C379.941 81.6 383.861 79.12 388.261 75.04L396.101 82.96C390.341 89.12 384.021 92.96 373.141 92.96ZM401.484 92V49.12H413.644V57.76C416.124 51.92 420.044 48 427.324 48.32V61.04H426.684C418.604 61.04 413.644 65.84 413.644 76.16V92H401.484ZM450.869 92.96C437.989 92.96 428.469 83.92 428.469 70.8V70.64C428.469 58.4 437.189 48.32 449.669 48.32C463.989 48.32 470.549 59.44 470.549 71.6C470.549 72.56 470.469 73.6 470.389 74.8H440.549C441.749 80.32 445.589 83.2 451.029 83.2C455.109 83.2 457.989 81.92 461.429 78.8L468.389 84.96C464.309 90 458.629 92.96 450.869 92.96ZM440.389 67.2H458.709C457.989 61.76 454.789 58.08 449.669 58.08C444.549 58.08 441.349 61.68 440.389 67.2ZM488.572 92.8C480.492 92.8 473.852 88.24 473.852 79.68V79.52C473.852 70.24 480.972 65.84 491.132 65.84C495.532 65.84 498.492 66.56 501.612 67.6V66.88C501.612 61.76 498.492 59.04 492.412 59.04C487.692 59.04 484.492 59.84 480.572 61.36L477.532 52.08C482.252 50.08 486.892 48.64 494.172 48.64C500.892 48.64 505.532 50.32 508.652 53.44C511.852 56.64 513.292 61.36 513.292 67.12V92H501.532V87.36C498.572 90.64 494.572 92.8 488.572 92.8ZM492.252 84.4C498.012 84.4 501.772 81.36 501.772 76.88V74.72C499.612 73.76 496.972 73.12 494.012 73.12C488.812 73.12 485.612 75.2 485.612 79.04V79.2C485.612 82.48 488.332 84.4 492.252 84.4ZM534.645 92.72C527.285 92.72 522.165 89.76 522.165 79.84V59.52H517.045V49.12H522.165V38.16H534.325V49.12H544.405V59.52H534.325V77.84C534.325 80.64 535.605 82 538.245 82C540.405 82 542.405 81.52 544.245 80.48V90.24C541.685 91.76 538.725 92.72 534.645 92.72ZM570.036 92.96C556.836 92.96 546.916 83.2 546.916 70.8V70.64C546.916 58.32 556.836 48.32 570.196 48.32C583.396 48.32 593.316 58.08 593.316 70.48V70.64C593.316 82.96 583.396 92.96 570.036 92.96ZM570.196 82.48C577.156 82.48 581.316 77.2 581.316 70.8V70.64C581.316 64.32 576.756 58.8 570.036 58.8C563.076 58.8 558.916 64.08 558.916 70.48V70.64C558.916 76.96 563.476 82.48 570.196 82.48ZM598.921 92V49.12H611.081V57.76C613.561 51.92 617.481 48 624.761 48.32V61.04H624.121C616.041 61.04 611.081 65.84 611.081 76.16V92H598.921ZM621.491 92V79.2H634.451V92H621.491ZM643.074 44.4V33.6H655.874V44.4H643.074ZM641.794 105.04C639.554 105.04 638.194 104.88 636.514 104.56V95.04C637.474 95.2 638.354 95.28 639.074 95.28C641.634 95.28 643.394 93.92 643.394 90.32V49.12H655.554V91.28C655.554 100.8 650.834 105.04 641.794 105.04ZM663.774 104.8V49.12H675.934V55.28C678.894 51.2 682.894 48.32 689.294 48.32C699.294 48.32 708.814 56.16 708.814 70.48V70.64C708.814 84.96 699.454 92.8 689.294 92.8C682.814 92.8 678.814 89.84 675.934 86.4V104.8H663.774ZM686.174 82.48C691.854 82.48 696.654 77.84 696.654 70.64V70.48C696.654 63.36 691.854 58.64 686.174 58.64C680.494 58.64 675.774 63.36 675.774 70.48V70.64C675.774 77.76 680.494 82.48 686.174 82.48Z" fill="#1476A6"></path><path d="M211.241 133.801H208.021C208.941 135.963 210.367 138.102 211.885 139.436C211.126 140.034 210.022 141.207 209.47 142.058C208.366 140.816 207.377 139.068 206.572 137.136V143.185H203.306V137.159C202.156 139.206 200.753 140.977 199.074 142.196C198.568 141.414 197.556 140.241 196.843 139.643C198.936 138.378 200.753 136.17 201.903 133.801H198.499V130.788H203.306V128.143H201.535C201.167 129.086 200.753 129.937 200.293 130.627C199.718 130.144 198.407 129.316 197.694 128.948C197.763 128.856 197.832 128.741 197.924 128.626H195.854V129.247C196.521 130.121 198.131 132.674 198.499 133.318L196.59 135.526C196.406 134.997 196.153 134.33 195.854 133.64V143.185H192.588V135.572C192.082 137.044 191.484 138.355 190.84 139.344C190.541 138.378 189.828 136.837 189.299 135.917C190.656 134.215 191.806 131.202 192.404 128.626H189.782V125.544H192.588V121.335H195.854V125.544H198.292V127.959C199.051 126.464 199.534 124.463 199.787 122.508L202.823 123.037C202.708 123.75 202.593 124.44 202.432 125.13H203.306V121.335H206.572V125.13H210.781V128.143H206.572V130.788H211.241V133.801ZM238.887 133.709V138.079C240.198 137.872 241.532 137.665 242.843 137.435L243.073 140.402C239.37 141.184 235.368 141.966 232.355 142.564L231.458 139.183C232.585 139.045 234.011 138.838 235.552 138.608V133.709H232.424V130.489H242.268V133.709H238.887ZM252.342 128.304H246.316C246.753 134.514 247.949 139.666 249.306 139.666C249.72 139.666 249.973 138.424 250.088 135.618C250.847 136.4 252.066 137.228 253.009 137.573C252.526 142.173 251.422 143.185 249.007 143.185C244.936 143.185 243.303 136.262 242.797 128.304H231.527V125.038H242.636C242.613 123.842 242.59 122.623 242.59 121.427H246.201C246.155 122.623 246.155 123.842 246.178 125.038H249.099C248.478 124.371 247.604 123.612 246.868 123.06L249.076 121.243C250.042 121.91 251.33 122.922 251.951 123.658L250.341 125.038H252.342V128.304ZM279.804 128.166H287.003C285.508 127.016 284.197 125.774 283.323 124.578C282.449 125.751 281.23 126.993 279.804 128.166ZM277.987 131.225V129.523C276.814 130.328 275.526 131.087 274.215 131.685C273.824 130.88 272.927 129.592 272.237 128.879C276.17 127.223 279.758 123.98 281.414 121.381H284.956C287.417 124.762 290.867 127.177 294.524 128.373C293.696 129.224 292.96 130.42 292.362 131.432C291.143 130.88 289.878 130.144 288.659 129.339V131.225H277.987ZM287.348 135.71H282.863C282.288 136.837 281.69 138.01 281.115 139.068C282.932 138.999 284.841 138.93 286.727 138.861C286.129 138.194 285.508 137.55 284.91 136.975L287.348 135.71ZM292.96 135.71H288.199C290.108 137.435 292.04 139.643 293.052 141.299L289.924 143.185C289.717 142.771 289.418 142.311 289.096 141.828C283.806 142.127 278.24 142.38 274.307 142.564L273.87 139.298C274.928 139.275 276.101 139.229 277.389 139.183C277.895 138.102 278.378 136.86 278.746 135.71H273.801V132.605H292.96V135.71ZM324.332 134.376L322.308 137.09C321.894 136.515 321.319 135.779 320.721 135.043V143.208H317.409V135.779C316.604 136.492 315.776 137.113 314.948 137.619C314.672 136.722 313.89 135.043 313.407 134.399C315.776 133.18 318.007 131.018 319.433 128.58H314.304V125.567H317.409V121.358H320.721V125.567H321.227L321.802 125.452L323.665 126.671C323.021 128.396 322.147 130.052 321.112 131.547C322.216 132.444 323.872 133.916 324.332 134.376ZM331.163 139.252H335.832V142.541H322.676V139.252H327.713V131.455H323.642V128.235H327.713V121.588H331.163V128.235H335.257V131.455H331.163V139.252ZM358.395 125.015C359.292 125.13 360.534 125.176 361.339 125.176H370.677C371.643 125.176 372.724 125.107 373.391 125.015V129.063C372.701 129.04 371.505 128.971 370.677 128.971H361.362C360.442 128.971 359.223 129.017 358.395 129.063V125.015ZM356.486 136.193C357.452 136.262 358.694 136.354 359.637 136.354H372.517C373.345 136.354 374.449 136.285 375.3 136.193V140.448C374.403 140.356 373.23 140.287 372.517 140.287H359.637C358.694 140.287 357.406 140.356 356.486 140.448V136.193ZM413.733 130.029C413.618 130.374 413.526 130.857 413.48 131.133C413.296 132.398 412.721 136.032 412.376 138.217H413.411C414.032 138.217 415.251 138.171 415.918 138.102V141.69C415.412 141.667 414.124 141.621 413.457 141.621H401.612C400.738 141.621 400.117 141.644 399.151 141.69V138.079C399.795 138.148 400.761 138.217 401.612 138.217H408.558C408.88 136.354 409.294 133.663 409.386 132.398H403.774C403.015 132.398 401.934 132.467 401.221 132.513V128.856C401.865 128.948 403.13 129.017 403.751 129.017H409.041C409.57 129.017 410.72 128.902 411.065 128.718L413.733 130.029ZM439.378 129.96C440.298 130.029 442.23 130.121 443.357 130.121H455.57C456.605 130.121 457.732 130.006 458.399 129.96V134.353C457.801 134.33 456.513 134.215 455.57 134.215H443.357C442.046 134.215 440.321 134.284 439.378 134.353V129.96ZM492.462 123.014C491.933 123.75 491.381 124.693 491.036 125.291H494.739C495.498 125.291 496.418 125.176 497.016 124.992L499.845 126.74C499.546 127.246 499.178 127.936 498.948 128.626C498.327 130.535 497.085 133.571 494.969 136.17C492.738 138.907 489.955 141.023 485.631 142.794L482.319 139.85C487.287 138.332 489.679 136.377 491.634 134.192C493.083 132.582 494.371 129.937 494.67 128.442H488.943C487.31 130.489 485.263 132.467 483.147 133.939L480.019 131.616C484.09 129.109 485.953 126.349 487.172 124.417C487.586 123.773 488.138 122.577 488.391 121.68L492.462 123.014ZM539.014 122.922C538.968 123.612 538.922 124.394 538.922 125.406V130.42C538.922 135.043 537.841 137.343 536.093 139.183C534.552 140.793 532.137 141.966 530.458 142.495L527.537 139.413C529.929 138.884 531.723 138.033 533.103 136.607C534.644 134.974 534.966 133.341 534.966 130.167V125.406C534.966 124.394 534.897 123.612 534.805 122.922H539.014ZM528.365 123.129C528.319 123.704 528.273 124.118 528.273 124.946V132.766C528.273 133.341 528.319 134.307 528.365 134.905H524.317C524.34 134.445 524.432 133.456 524.432 132.743V124.946C524.432 124.509 524.409 123.704 524.34 123.129H528.365ZM564.705 124.555C565.303 124.647 566.315 124.716 567.028 124.716H579.494C580.184 124.716 581.035 124.647 581.748 124.555V128.373C581.012 128.304 580.161 128.258 579.494 128.258H574.986V136.975H580.736C581.61 136.975 582.415 136.86 583.013 136.768V140.793C582.346 140.701 581.311 140.678 580.736 140.678H565.579C564.866 140.678 563.992 140.701 563.187 140.793V136.768C563.946 136.906 564.843 136.975 565.579 136.975H571.076V128.258H567.028C566.315 128.258 565.303 128.304 564.705 128.373V124.555ZM604.127 131.708C608.313 130.65 611.602 129.224 614.178 127.66C616.501 126.234 619.307 123.75 620.756 122.002L623.769 124.877C622.044 126.556 619.813 128.35 617.628 129.799V138.861C617.628 139.965 617.674 141.552 617.858 142.196H613.442C613.534 141.575 613.626 139.965 613.626 138.861V132.122C611.303 133.295 608.52 134.468 605.852 135.227L604.127 131.708ZM656.98 122.692C656.474 123.405 655.945 124.302 655.6 124.9H659.418C660.177 124.9 661.097 124.785 661.695 124.601L664.501 126.349C664.202 126.855 663.857 127.545 663.604 128.235C663.006 129.937 661.902 132.283 660.315 134.537C661.304 135.25 662.201 135.917 662.845 136.423L660.177 139.597C659.579 139.045 658.751 138.332 657.808 137.573C655.83 139.62 653.3 141.483 649.896 142.794L646.653 139.988C650.609 138.746 653.024 137.021 654.795 135.273C653.415 134.261 652.058 133.318 651.023 132.651L653.507 130.098C654.565 130.719 655.899 131.547 657.233 132.421C658.245 130.949 659.119 129.247 659.418 128.051H653.507C651.828 130.236 649.62 132.444 647.458 133.939L644.445 131.616C648.516 129.109 650.517 126.119 651.736 124.187C652.15 123.543 652.702 122.347 652.955 121.45L656.98 122.692ZM686.857 129.96C687.777 130.029 689.709 130.121 690.836 130.121H703.049C704.084 130.121 705.211 130.006 705.878 129.96V134.353C705.28 134.33 703.992 134.215 703.049 134.215H690.836C689.525 134.215 687.8 134.284 686.857 134.353V129.96Z" fill="#1476A6"></path></svg>