<svg width="769" height="169" viewBox="0 0 769 169" fill="none" xmlns="http://www.w3.org/2000/svg">
<path d="M44.2024 4.51867e-05C37.644 -0.00917363 31.6874 1.39199 26.979 4.39168C4.99695 18.3955 -10.405 53.3731 8.56124 86.9526C14.52 97.5027 31.2693 107.812 47.2337 115.619C39.8127 109.761 33.439 103.44 30.458 95.6729C26.4231 85.16 27.1764 73.0194 31.9047 66.0318C42.1451 50.8992 68.969 52.2333 87.0662 72.8552C97.7144 84.9887 105.542 102.68 109.135 118.585C115.592 96.957 114.933 68.5208 107.827 46.4633C98.7027 18.1474 67.6256 0.0329474 44.2024 4.51867e-05Z" fill="#95D4E8"/>
<path d="M38.9396 115.3C37.684 115.313 36.3924 115.348 35.0577 115.421C15.958 116.468 10.3497 132.109 12.4719 143.845C14.794 156.685 20.4439 168.145 39.831 168.112C57.845 168.081 101.108 133.017 109.104 118.854C101.94 123.749 92.8898 128.572 83.8771 132.302C64.6889 140.242 45.0755 140.897 37.7122 131.18C34.2091 126.558 37.6784 121.18 47.2036 115.672C44.5981 115.437 41.911 115.269 38.9396 115.3Z" fill="#FDCA60"/>
<path d="M145.788 74.0479C137.555 93.1159 124.665 108.112 109.183 118.834C110.644 130.308 114.34 137.995 119.666 138.707C129.117 139.971 140.153 118.791 144.307 91.405C145.229 85.3268 145.662 79.5217 145.788 74.0479Z" fill="#2789B9"/>
<path d="M189.44 92H201.6V68.08C201.6 62.32 204.48 59.36 209.2 59.36C213.92 59.36 216.56 62.32 216.56 68.08V92H228.72V64.24C228.72 54.32 223.44 48.32 214.16 48.32C208.08 48.32 204.4 51.6 201.6 55.2V49.12H189.44V92ZM256.404 92.96C264.164 92.96 269.844 90 273.924 84.96L266.964 78.8C263.524 81.92 260.644 83.2 256.564 83.2C251.124 83.2 247.284 80.32 246.084 74.8H275.924C276.004 73.6 276.084 72.56 276.084 71.6C276.084 59.44 269.524 48.32 255.204 48.32C242.724 48.32 234.004 58.4 234.004 70.64V70.8C234.004 83.92 243.524 92.96 256.404 92.96ZM245.924 67.2C246.884 61.68 250.084 58.08 255.204 58.08C260.324 58.08 263.524 61.76 264.244 67.2H245.924ZM289.595 92.32H300.475L308.875 66L317.115 92.32H328.075L341.435 49.12H329.355L322.315 75.2L314.155 48.96H303.675L295.595 75.12L288.715 49.12H276.395L289.595 92.32ZM373.141 92.96C384.021 92.96 390.341 89.12 396.101 82.96L388.261 75.04C383.861 79.12 379.941 81.6 373.541 81.6C363.941 81.6 357.301 73.6 357.301 64V63.84C357.301 54.24 364.101 46.4 373.541 46.4C379.221 46.4 383.461 48.8 387.861 52.72L395.701 43.68C390.581 38.56 384.101 35.04 373.621 35.04C356.421 35.04 344.421 48.08 344.421 64V64.16C344.421 80.24 356.661 92.96 373.141 92.96ZM401.484 92H413.644V76.16C413.644 65.84 418.604 61.04 426.684 61.04H427.324V48.32C420.044 48 416.124 51.92 413.644 57.76V49.12H401.484V92ZM450.869 92.96C458.629 92.96 464.309 90 468.389 84.96L461.429 78.8C457.989 81.92 455.109 83.2 451.029 83.2C445.589 83.2 441.749 80.32 440.549 74.8H470.389C470.469 73.6 470.549 72.56 470.549 71.6C470.549 59.44 463.989 48.32 449.669 48.32C437.189 48.32 428.469 58.4 428.469 70.64V70.8C428.469 83.92 437.989 92.96 450.869 92.96ZM440.389 67.2C441.349 61.68 444.549 58.08 449.669 58.08C454.789 58.08 457.989 61.76 458.709 67.2H440.389ZM488.572 92.8C494.572 92.8 498.572 90.64 501.532 87.36V92H513.292V67.12C513.292 61.36 511.852 56.64 508.652 53.44C505.532 50.32 500.892 48.64 494.172 48.64C486.892 48.64 482.252 50.08 477.532 52.08L480.572 61.36C484.492 59.84 487.692 59.04 492.412 59.04C498.492 59.04 501.612 61.76 501.612 66.88V67.6C498.492 66.56 495.532 65.84 491.132 65.84C480.972 65.84 473.852 70.24 473.852 79.52V79.68C473.852 88.24 480.492 92.8 488.572 92.8ZM492.252 84.4C488.332 84.4 485.612 82.48 485.612 79.2V79.04C485.612 75.2 488.812 73.12 494.012 73.12C496.972 73.12 499.612 73.76 501.772 74.72V76.88C501.772 81.36 498.012 84.4 492.252 84.4ZM534.645 92.72C538.725 92.72 541.685 91.76 544.245 90.24V80.48C542.405 81.52 540.405 82 538.245 82C535.605 82 534.325 80.64 534.325 77.84V59.52H544.405V49.12H534.325V38.16H522.165V49.12H517.045V59.52H522.165V79.84C522.165 89.76 527.285 92.72 534.645 92.72ZM570.036 92.96C583.396 92.96 593.316 82.96 593.316 70.64V70.48C593.316 58.08 583.396 48.32 570.196 48.32C556.836 48.32 546.916 58.32 546.916 70.64V70.8C546.916 83.2 556.836 92.96 570.036 92.96ZM570.196 82.48C563.476 82.48 558.916 76.96 558.916 70.64V70.48C558.916 64.08 563.076 58.8 570.036 58.8C576.756 58.8 581.316 64.32 581.316 70.64V70.8C581.316 77.2 577.156 82.48 570.196 82.48ZM598.921 92H611.081V76.16C611.081 65.84 616.041 61.04 624.121 61.04H624.761V48.32C617.481 48 613.561 51.92 611.081 57.76V49.12H598.921V92ZM621.491 92H634.451V79.2H621.491V92ZM661.139 92.96C674.499 92.96 684.419 82.96 684.419 70.64V70.48C684.419 58.08 674.499 48.32 661.299 48.32C647.939 48.32 638.019 58.32 638.019 70.64V70.8C638.019 83.2 647.939 92.96 661.139 92.96ZM661.299 82.48C654.579 82.48 650.019 76.96 650.019 70.64V70.48C650.019 64.08 654.179 58.8 661.139 58.8C667.859 58.8 672.419 64.32 672.419 70.64V70.8C672.419 77.2 668.259 82.48 661.299 82.48ZM690.024 92H702.184V76.16C702.184 65.84 707.144 61.04 715.224 61.04H715.864V48.32C708.584 48 704.664 51.92 702.184 57.76V49.12H690.024V92ZM738.681 104.96C747.001 104.96 753.081 103.28 757.161 99.2C760.761 95.6 762.601 89.92 762.601 82.32V49.12H750.441V54.72C747.161 51.12 743.241 48.32 736.601 48.32C726.761 48.32 717.561 55.52 717.561 68.32V68.48C717.561 81.28 726.601 88.48 736.601 88.48C743.081 88.48 747.001 85.92 750.601 81.52V83.6C750.601 91.28 746.681 95.28 738.361 95.28C732.601 95.28 728.361 93.84 723.881 91.36L719.721 100.48C725.161 103.36 731.641 104.96 738.681 104.96ZM740.121 78.4C734.121 78.4 729.721 74.48 729.721 68.48V68.32C729.721 62.48 734.201 58.4 740.121 58.4C746.121 58.4 750.601 62.48 750.601 68.32V68.48C750.601 74.32 746.121 78.4 740.121 78.4Z" fill="#1476A6"/>
<path d="M194.212 123.129V126.142H205.413V123.129H194.212ZM192.832 127.568V130.65H206.402V127.568H192.832ZM193.384 132.352V135.411H206.126V132.352H193.384ZM198.076 121.312V129.293H201.388V121.312H198.076ZM200.721 130.351V139.505C200.721 139.804 200.606 139.873 200.238 139.873C199.87 139.873 198.605 139.873 197.616 139.827C198.053 140.747 198.49 142.173 198.605 143.139C200.33 143.139 201.687 143.07 202.722 142.564C203.757 142.058 204.033 141.161 204.033 139.574V130.351H200.721ZM193.982 136.538C194.902 137.619 196.029 139.114 196.489 140.08L199.111 138.355C198.582 137.389 197.386 135.986 196.443 134.997L193.982 136.538ZM184.506 133.456L185.288 136.653C187.772 135.94 190.946 135.02 193.844 134.123L193.407 131.179C190.21 132.053 186.783 132.973 184.506 133.456ZM188.531 121.335V143.185H191.59V121.335H188.531ZM185.403 122.508C185.242 125.176 184.897 128.028 184.23 129.822C184.874 130.167 186.047 130.926 186.553 131.34C187.358 129.27 187.887 126.004 188.163 122.968L185.403 122.508ZM186.3 125.498L185.656 128.672H193.246V125.498H186.3ZM215.74 128.235V131.409H228.068V128.235H215.74ZM221.95 133.755V136.883H229.724V133.755H221.95ZM220.202 130.144V140.54L223.698 140.954V130.144H220.202ZM214.682 132.306C214.337 136.147 213.256 139.298 210.795 141.046C211.577 141.552 213.003 142.748 213.555 143.346C216.2 141.092 217.603 137.366 218.178 132.651L214.682 132.306ZM217.557 135.135L214.82 136.009C216.798 141.92 220.294 143.001 225.515 143.001H231.518C231.679 141.989 232.208 140.379 232.691 139.597C230.897 139.666 227.148 139.666 225.699 139.666C221.95 139.643 218.914 139.091 217.557 135.135ZM220.133 121.381V125.843H223.721V121.381H220.133ZM211.922 123.52V129.73H215.211V126.671H228.551V129.73H232.001V123.52H211.922ZM251.16 124.164V127.269H258.842V124.164H251.16ZM251.16 134.928V138.033H259.256V134.928H251.16ZM250.93 129.569V132.582H258.29V129.569H250.93ZM238.395 124.164V127.269H245.456V124.164H238.395ZM238.625 129.569V132.582H245.272V129.569H238.625ZM249.458 121.45V143.185H252.816V121.45H249.458ZM237.337 134.951L237.935 138.263C240.925 137.849 244.881 137.274 248.607 136.699L248.492 133.755C244.444 134.238 240.12 134.721 237.337 134.951ZM243.823 121.45V132.26C243.823 134.675 242.742 138.953 237.82 141C238.602 141.644 239.683 142.702 240.235 143.484C245.847 140.701 247.135 135.48 247.135 132.237V121.45H243.823ZM271.952 130.88H277.633V131.938H271.952V130.88ZM268.87 128.488V134.33H280.899V128.488H268.87ZM272.918 133.364C272.826 134.284 272.55 135.48 272.274 136.446L275.195 136.814C275.632 136.009 276.253 134.836 276.736 133.548L272.918 133.364ZM266.777 135.48V143.254H269.951V138.332H279.933V143.254H283.268V135.48H266.777ZM268.594 139.712V142.564H281.336V139.712H268.594ZM265.006 124.9V130.029H268.042V127.706H281.727V130.029H284.947V124.9H265.006ZM280.186 121.404C279.772 122.508 278.99 123.957 278.3 124.946L281.037 125.935C281.819 125.084 282.808 123.796 283.82 122.462L280.186 121.404ZM266.225 122.876C266.938 123.796 267.743 125.061 268.042 125.866L271.124 124.555C270.756 123.704 269.882 122.508 269.123 121.657L266.225 122.876ZM271.998 122.232C272.596 123.198 273.286 124.509 273.539 125.337L276.644 124.21C276.322 123.382 275.563 122.117 274.942 121.22L271.998 122.232ZM290.72 128.12V131.202H301.806V128.12H290.72ZM302.68 124.164V137.205H305.923V124.164H302.68ZM294.883 123.796V143.162H298.149V123.796H294.883ZM308.016 121.772V139.183C308.016 139.62 307.832 139.758 307.395 139.758C306.889 139.758 305.371 139.758 303.922 139.689C304.405 140.632 304.934 142.196 305.072 143.162C307.188 143.162 308.844 143.047 309.925 142.518C310.983 141.966 311.328 141.069 311.328 139.206V121.772H308.016ZM299.529 121.404C297.252 122.439 293.71 123.336 290.398 123.865C290.766 124.555 291.226 125.705 291.364 126.464C294.837 125.981 298.816 125.176 301.875 123.957L299.529 121.404ZM294.883 129.592C294.009 132.076 292.146 135.273 290.191 137.159C290.72 138.056 291.548 139.482 291.87 140.471C294.055 138.125 295.941 134.008 297.091 130.581L294.883 129.592ZM297.643 131.892L295.941 133.617C297.091 134.721 299.046 136.837 300.081 138.194L301.967 135.296C301.323 134.744 298.54 132.444 297.643 131.892ZM325.266 133.64V143.162H328.302V136.653H334.489V143.07H337.663V133.64H325.266ZM335.294 121.289C332.741 122.37 328.601 123.152 324.737 123.52C325.105 124.256 325.542 125.567 325.68 126.372C329.728 126.027 334.328 125.314 337.824 123.911L335.294 121.289ZM329.843 124.21V135.388H333.017V124.21H329.843ZM323.955 128.005V131.202H338.629V128.005H323.955ZM327.474 139.229V142.242H335.754V139.229H327.474ZM318.067 124.049C319.332 124.808 321.31 125.912 322.207 126.579L324.185 123.888C323.196 123.267 321.172 122.255 319.953 121.634L318.067 124.049ZM316.963 130.443C318.32 131.156 320.367 132.26 321.31 132.927L323.173 130.144C322.138 129.523 320.022 128.534 318.757 127.959L316.963 130.443ZM317.193 140.678L320.022 142.932C321.425 140.632 322.805 138.148 324.024 135.733L321.563 133.502C320.16 136.193 318.412 138.976 317.193 140.678ZM343.896 136.124V138.447H354.775V136.124H343.896ZM343.436 125.268V127.637H354.936V125.268H343.436ZM347.76 123.888V140.149H350.773V123.888H347.76ZM343.252 139.712L343.62 142.472C346.656 142.219 350.842 141.828 354.775 141.437L354.752 138.93C350.589 139.252 346.15 139.551 343.252 139.712ZM346.61 132.812H351.9V133.502H346.61V132.812ZM346.61 130.236H351.9V130.926H346.61V130.236ZM343.988 128.212V135.526H354.637V128.212H343.988ZM353.349 121.404C350.727 121.956 346.84 122.347 343.39 122.508C343.689 123.152 344.011 124.187 344.103 124.854C347.553 124.808 351.693 124.486 354.752 123.865L353.349 121.404ZM355.028 126.441V129.5H362.802V126.441H355.028ZM361.445 126.441V127.131C361.307 135.802 361.146 139.022 360.663 139.689C360.433 140.011 360.226 140.103 359.881 140.103C359.421 140.103 358.639 140.103 357.719 140.011C358.248 140.908 358.616 142.265 358.685 143.185C359.789 143.208 360.847 143.208 361.583 143.047C362.388 142.863 362.963 142.587 363.538 141.713C364.274 140.632 364.435 137.182 364.619 127.867C364.619 127.476 364.642 126.441 364.642 126.441H361.445ZM356.914 121.772C356.891 131.248 357.213 137.205 352.59 140.862C353.349 141.414 354.407 142.587 354.867 143.392C360.065 139.16 360.088 131.984 360.111 121.772H356.914ZM376.28 130.305V133.479H391.299V130.305H376.28ZM377.43 124.394V127.568H390.172V124.394H377.43ZM381.961 121.335V132.628H385.434V121.335H381.961ZM376.28 138.976L376.717 142.357C379.937 142.104 384.353 141.759 388.493 141.368L388.516 138.355C384.1 138.608 379.339 138.861 376.28 138.976ZM384.836 136.216C386.469 138.378 388.171 141.276 388.746 143.185L391.943 141.437C391.253 139.436 389.413 136.722 387.734 134.675L384.836 136.216ZM380.029 132.582C379.5 134.905 378.465 137.872 377.499 139.827L380.489 140.77C381.501 138.953 382.766 136.193 383.778 133.548L380.029 132.582ZM371.036 123.842C372.508 124.486 374.394 125.613 375.268 126.441L377.223 123.727C376.257 122.922 374.325 121.933 372.876 121.381L371.036 123.842ZM369.679 130.075C371.151 130.673 373.06 131.731 373.934 132.513L375.797 129.73C374.808 128.971 372.853 128.051 371.404 127.545L369.679 130.075ZM370.231 140.724L373.129 142.863C374.417 140.586 375.682 138.102 376.786 135.687L374.256 133.548C372.968 136.239 371.358 138.999 370.231 140.724ZM404.754 121.795C404.593 124.808 405.099 134.997 395.945 140.31C397.118 141.092 398.199 142.127 398.797 143.001C408.112 136.906 408.411 125.82 408.618 121.795H404.754ZM408.503 122.485L405.26 122.83C405.467 125.337 405.789 137.918 415.794 142.978C416.3 142.058 417.289 140.931 418.37 140.126C408.963 135.664 408.572 124.601 408.503 122.485ZM425.845 125.015V129.063C426.673 129.017 427.892 128.971 428.812 128.971C430.169 128.971 436.862 128.971 438.127 128.971C438.955 128.971 440.151 129.04 440.841 129.063V125.015C440.174 125.107 439.093 125.176 438.127 125.176C436.816 125.176 431.02 125.176 428.789 125.176C427.984 125.176 426.742 125.13 425.845 125.015ZM423.936 136.193V140.448C424.856 140.356 426.144 140.287 427.087 140.287C428.628 140.287 438.472 140.287 439.967 140.287C440.68 140.287 441.853 140.356 442.75 140.448V136.193C441.899 136.285 440.795 136.354 439.967 136.354C438.472 136.354 428.628 136.354 427.087 136.354C426.144 136.354 424.902 136.262 423.936 136.193ZM466.233 130.029L463.565 128.718C463.22 128.902 462.07 129.017 461.541 129.017C460.529 129.017 457.585 129.017 456.251 129.017C455.63 129.017 454.365 128.948 453.721 128.856V132.513C454.434 132.467 455.515 132.398 456.274 132.398C456.964 132.398 460.989 132.398 461.886 132.398C461.771 133.962 461.15 137.757 460.851 139.413H464.692C464.968 137.734 465.75 132.674 465.98 131.133C466.026 130.857 466.118 130.374 466.233 130.029ZM451.651 138.079V141.69C452.617 141.644 453.238 141.621 454.112 141.621C455.308 141.621 464.83 141.621 465.957 141.621C466.624 141.621 467.912 141.667 468.418 141.69V138.102C467.751 138.171 466.532 138.217 465.911 138.217C464.853 138.217 455.584 138.217 454.112 138.217C453.261 138.217 452.295 138.148 451.651 138.079ZM476.928 129.96V134.353C477.871 134.284 479.596 134.215 480.907 134.215C484.173 134.215 490.843 134.215 493.12 134.215C494.063 134.215 495.351 134.33 495.949 134.353V129.96C495.282 130.006 494.155 130.121 493.12 130.121C490.866 130.121 484.196 130.121 480.907 130.121C479.78 130.121 477.848 130.029 476.928 129.96ZM522.445 126.74L519.616 124.992C519.018 125.176 518.098 125.291 517.339 125.291C516.603 125.291 512.279 125.291 511.198 125.291L509.956 128.442H517.27C516.971 129.937 515.683 132.582 514.234 134.192C512.279 136.377 509.887 138.332 504.919 139.85L508.231 142.794C512.555 141.023 515.338 138.907 517.569 136.17C519.685 133.571 520.927 130.535 521.548 128.626C521.778 127.936 522.146 127.246 522.445 126.74ZM515.062 123.014L510.991 121.68C510.738 122.577 510.186 123.773 509.772 124.417C508.553 126.349 506.69 129.109 502.619 131.616L505.747 133.939C508.829 131.8 511.773 128.58 513.429 125.659C513.728 125.13 514.418 123.934 515.062 123.014ZM546.664 122.922H542.455C542.547 123.612 542.616 124.394 542.616 125.406C542.616 126.51 542.616 128.856 542.616 130.167C542.616 133.341 542.294 134.974 540.753 136.607C539.373 138.033 537.579 138.884 535.187 139.413L538.108 142.495C539.787 141.966 542.202 140.793 543.743 139.183C545.491 137.343 546.572 135.043 546.572 130.42C546.572 129.132 546.572 126.74 546.572 125.406C546.572 124.394 546.618 123.612 546.664 122.922ZM536.015 123.129H531.99C532.059 123.704 532.082 124.509 532.082 124.946C532.082 126.142 532.082 131.248 532.082 132.743C532.082 133.456 531.99 134.445 531.967 134.905H536.015C535.969 134.307 535.923 133.341 535.923 132.766C535.923 131.294 535.923 126.142 535.923 124.946C535.923 124.118 535.969 123.704 536.015 123.129ZM557.405 124.555V128.373C558.003 128.304 559.015 128.258 559.728 128.258H572.194C572.861 128.258 573.712 128.304 574.448 128.373V124.555C573.735 124.647 572.884 124.716 572.194 124.716H559.728C559.015 124.716 558.003 124.647 557.405 124.555ZM563.776 139.091H567.686V126.671H563.776V139.091ZM555.887 136.768V140.793C556.692 140.701 557.566 140.678 558.279 140.678H573.436C574.011 140.678 575.046 140.701 575.713 140.793V136.768C575.115 136.86 574.31 136.975 573.436 136.975H558.279C557.543 136.975 556.646 136.906 555.887 136.768ZM581.877 131.708L583.602 135.227C587.19 134.192 590.962 132.444 593.607 130.903C596.321 129.316 599.334 127.016 601.519 124.877L598.506 122.002C597.057 123.75 594.251 126.234 591.928 127.66C589.352 129.224 586.063 130.65 581.877 131.708ZM591.376 129.454V138.861C591.376 139.965 591.284 141.575 591.192 142.196H595.608C595.424 141.552 595.378 139.965 595.378 138.861V128.58L591.376 129.454ZM616.307 130.098L613.823 132.651C616.422 134.307 621.022 137.734 622.977 139.597L625.645 136.423C623.598 134.79 619.067 131.685 616.307 130.098ZM627.301 126.349L624.495 124.601C623.897 124.785 622.977 124.9 622.218 124.9H616.1L614.858 128.051H622.218C621.827 129.638 620.424 132.122 618.998 133.778C617.089 135.986 614.559 138.401 609.453 139.988L612.696 142.794C617.112 141.092 620.033 138.47 622.241 135.71C624.311 133.111 625.691 130.236 626.404 128.235C626.657 127.545 627.002 126.855 627.301 126.349ZM619.78 122.692L615.755 121.45C615.502 122.347 614.95 123.543 614.536 124.187C613.317 126.119 611.316 129.109 607.245 131.616L610.258 133.939C613.34 131.8 616.491 128.258 618.147 125.337C618.446 124.808 619.136 123.612 619.78 122.692ZM634.707 129.96V134.353C635.65 134.284 637.375 134.215 638.686 134.215C641.952 134.215 648.622 134.215 650.899 134.215C651.842 134.215 653.13 134.33 653.728 134.353V129.96C653.061 130.006 651.934 130.121 650.899 130.121C648.645 130.121 641.975 130.121 638.686 130.121C637.559 130.121 635.627 130.029 634.707 129.96ZM670.679 129.04C668.908 129.04 667.459 130.489 667.459 132.26C667.459 134.031 668.908 135.48 670.679 135.48C672.45 135.48 673.899 134.031 673.899 132.26C673.899 130.489 672.45 129.04 670.679 129.04ZM701.683 122.324H697.75C697.865 123.014 697.934 123.842 698.003 124.9C698.233 129.408 698.256 134.629 698.256 137.734C698.256 138.401 698.026 138.7 697.497 138.7C696.761 138.7 695.542 138.608 694.53 138.447L694.852 142.058C696.255 142.15 697.497 142.196 699.015 142.196C700.97 142.196 701.89 141.23 701.867 139.597C701.798 134.767 701.637 129.408 701.545 124.9C701.522 124.118 701.568 123.106 701.683 122.324ZM688.113 126.05V129.73C688.964 129.684 690.114 129.638 690.988 129.638C692.391 129.638 703.362 129.638 704.213 129.638C704.857 129.638 705.8 129.661 706.628 129.684V126.027C706.03 126.119 704.834 126.234 704.006 126.234C702.902 126.234 692.713 126.234 690.896 126.234C690.068 126.234 688.757 126.142 688.113 126.05ZM686.664 137.113L689.217 140.011C692.92 138.056 696.876 134.721 698.808 131.915L698.785 128.948L696.968 128.925C695.335 131.593 691.425 134.882 686.664 137.113ZM723.372 140.471L725.695 142.38C725.948 142.196 726.247 141.92 726.799 141.621C729.352 140.31 732.71 137.757 734.573 135.388L732.434 132.306C731.008 134.33 729.053 135.986 727.328 136.699C727.328 134.905 727.328 127.453 727.328 125.383C727.328 124.256 727.512 123.221 727.512 123.221H723.372C723.372 123.221 723.579 124.233 723.579 125.36C723.579 127.453 723.579 137.251 723.579 138.562C723.579 139.275 723.487 139.988 723.372 140.471ZM712.654 140.011L716.058 142.265C718.059 140.448 719.462 138.171 720.175 135.503C720.773 133.18 720.842 128.373 720.842 125.544C720.842 124.44 721.026 123.221 721.026 123.221H716.932C717.093 123.842 717.185 124.509 717.185 125.59C717.185 128.465 717.162 132.697 716.518 134.583C715.92 136.4 714.747 138.562 712.654 140.011ZM756.63 121.91L754.468 122.784C755.089 123.681 755.756 125.038 756.239 125.981L758.424 125.061C758.01 124.256 757.205 122.761 756.63 121.91ZM759.459 120.806L757.297 121.68C757.918 122.554 758.654 123.911 759.114 124.854L761.276 123.934C760.885 123.152 760.057 121.68 759.459 120.806ZM758.999 127.246L756.17 125.498C755.572 125.682 754.652 125.797 753.893 125.797C753.157 125.797 748.833 125.797 747.752 125.797L746.51 128.948H753.824C753.525 130.443 752.237 133.088 750.788 134.698C748.833 136.883 746.441 138.838 741.473 140.356L744.785 143.3C749.109 141.529 751.892 139.413 754.123 136.676C756.239 134.077 757.481 131.041 758.102 129.132C758.332 128.442 758.7 127.752 758.999 127.246ZM751.616 123.52L747.545 122.186C747.292 123.083 746.74 124.279 746.326 124.923C745.107 126.855 743.244 129.615 739.173 132.122L742.301 134.445C745.383 132.306 748.327 129.086 749.983 126.165C750.282 125.636 750.972 124.44 751.616 123.52Z" fill="#1476A6"/>
</svg>
