<svg width="371" height="83" viewBox="0 0 371 83" fill="none" xmlns="http://www.w3.org/2000/svg">
<path d="M3.632 63L16.014 4.45202H32.332C37.088 4.45202 40.8873 5.16269 43.73 6.58402C46.6273 8.00535 48.7047 10.0007 49.962 12.57C51.274 15.1394 51.93 18.1187 51.93 21.508C51.93 25.0067 51.274 28.0407 49.962 30.61C48.7047 33.1794 46.928 35.3387 44.632 37.088C42.336 38.7827 39.63 40.0674 36.514 40.942C33.398 41.762 30.036 42.172 26.428 42.172H20.196L15.85 63H3.632ZM27.412 32.004C29.872 32.004 32.004 31.6214 33.808 30.856C35.6667 30.036 37.088 28.8607 38.072 27.33C39.1107 25.7994 39.63 23.968 39.63 21.836C39.63 19.376 38.974 17.572 37.662 16.424C36.35 15.2214 34.4093 14.62 31.84 14.62H26.1L22.41 32.004H27.412Z" fill="black"/>
<path d="M53.0248 63L62.5368 18.228H71.7208L70.9008 26.51H71.3108C72.5135 24.5967 73.8255 22.984 75.2468 21.672C76.6682 20.3054 78.1988 19.2667 79.8388 18.556C81.5335 17.7907 83.3375 17.408 85.2508 17.408C85.9068 17.408 86.5902 17.4627 87.3008 17.572C88.0662 17.6267 88.6675 17.7087 89.1048 17.818L86.4808 29.462C86.0435 29.298 85.4695 29.1614 84.7588 29.052C84.0482 28.888 83.2828 28.806 82.4628 28.806C80.9868 28.806 79.5655 29.1067 78.1988 29.708C76.8322 30.3094 75.5748 31.2114 74.4268 32.414C73.2788 33.562 72.2675 35.038 71.3928 36.842C70.5182 38.5914 69.8348 40.6414 69.3428 42.992L65.0788 63H53.0248Z" fill="black"/>
<path d="M105.781 63.82C102.282 63.82 99.1936 63.1914 96.5149 61.934C93.8909 60.6767 91.8136 58.7634 90.2829 56.194C88.8069 53.6247 88.0689 50.3994 88.0689 46.518C88.0689 42.746 88.5883 39.138 89.6269 35.694C90.7203 32.1954 92.3056 29.0794 94.3829 26.346C96.5149 23.6127 99.1389 21.4534 102.255 19.868C105.371 18.228 108.979 17.408 113.079 17.408C118.108 17.408 121.853 18.556 124.313 20.852C126.828 23.148 128.085 26.0727 128.085 29.626C128.085 31.9767 127.538 34.1087 126.445 36.022C125.406 37.9354 123.821 39.5754 121.689 40.942C119.612 42.3087 116.96 43.3747 113.735 44.14C110.51 44.8507 106.71 45.206 102.337 45.206H100.287C100.232 45.534 100.205 45.8347 100.205 46.108C100.205 46.3267 100.205 46.5727 100.205 46.846C100.205 49.2514 100.888 51.1647 102.255 52.586C103.676 54.0074 105.644 54.718 108.159 54.718C110.51 54.718 112.642 54.4447 114.555 53.898C116.468 53.3514 118.737 52.4767 121.361 51.274V60.376C119.01 61.524 116.632 62.3987 114.227 63C111.822 63.5467 109.006 63.82 105.781 63.82ZM103.403 37.088C106.519 37.088 109.034 36.76 110.947 36.104C112.86 35.448 114.254 34.5734 115.129 33.48C116.058 32.332 116.523 31.1294 116.523 29.872C116.523 28.6147 116.14 27.6854 115.375 27.084C114.664 26.428 113.653 26.1 112.341 26.1C110.865 26.1 109.389 26.5647 107.913 27.494C106.437 28.4234 105.125 29.708 103.977 31.348C102.884 32.988 102.091 34.9014 101.599 37.088H103.403Z" fill="black"/>
<path d="M128.301 82.68C127.044 82.68 125.787 82.5707 124.529 82.352C123.217 82.188 122.151 81.9694 121.331 81.696V72.02C122.206 72.2934 122.999 72.4847 123.709 72.594C124.42 72.758 125.158 72.84 125.923 72.84C127.563 72.84 128.985 72.2934 130.187 71.2C131.445 70.1067 132.319 68.3847 132.811 66.034L141.011 27.412H134.451L135.681 21.59L142.979 18.228L143.717 14.866C144.319 12.1327 145.084 9.83669 146.013 7.97802C146.997 6.11935 148.173 4.64335 149.539 3.55002C150.906 2.40202 152.464 1.58202 154.213 1.09002C156.017 0.543353 158.013 0.27002 160.199 0.27002C162.058 0.27002 163.753 0.461354 165.283 0.844022C166.869 1.17202 168.317 1.63669 169.629 2.23802L166.431 11.176C165.666 10.848 164.846 10.5747 163.971 10.356C163.151 10.0827 162.195 9.94602 161.101 9.94602C159.571 9.94602 158.341 10.4927 157.411 11.586C156.482 12.6247 155.853 14.0187 155.525 15.768L155.033 18.228H163.807L161.839 27.412H153.065L144.455 67.838C143.909 70.5714 143.007 73.0587 141.749 75.3C140.492 77.5414 138.77 79.318 136.583 80.63C134.451 81.9967 131.691 82.68 128.301 82.68Z" fill="black"/>
<path d="M182.015 63.82C178.517 63.82 175.428 63.1914 172.749 61.934C170.125 60.6767 168.048 58.7634 166.517 56.194C165.041 53.6247 164.303 50.3994 164.303 46.518C164.303 42.746 164.823 39.138 165.861 35.694C166.955 32.1954 168.54 29.0794 170.617 26.346C172.749 23.6127 175.373 21.4534 178.489 19.868C181.605 18.228 185.213 17.408 189.313 17.408C194.343 17.408 198.087 18.556 200.547 20.852C203.062 23.148 204.319 26.0727 204.319 29.626C204.319 31.9767 203.773 34.1087 202.679 36.022C201.641 37.9354 200.055 39.5754 197.923 40.942C195.846 42.3087 193.195 43.3747 189.969 44.14C186.744 44.8507 182.945 45.206 178.571 45.206H176.521C176.467 45.534 176.439 45.8347 176.439 46.108C176.439 46.3267 176.439 46.5727 176.439 46.846C176.439 49.2514 177.123 51.1647 178.489 52.586C179.911 54.0074 181.879 54.718 184.393 54.718C186.744 54.718 188.876 54.4447 190.789 53.898C192.703 53.3514 194.971 52.4767 197.595 51.274V60.376C195.245 61.524 192.867 62.3987 190.461 63C188.056 63.5467 185.241 63.82 182.015 63.82ZM179.637 37.088C182.753 37.088 185.268 36.76 187.181 36.104C189.095 35.448 190.489 34.5734 191.363 33.48C192.293 32.332 192.757 31.1294 192.757 29.872C192.757 28.6147 192.375 27.6854 191.609 27.084C190.899 26.428 189.887 26.1 188.575 26.1C187.099 26.1 185.623 26.5647 184.147 27.494C182.671 28.4234 181.359 29.708 180.211 31.348C179.118 32.988 178.325 34.9014 177.833 37.088H179.637Z" fill="black"/>
<path d="M207.816 63L217.328 18.228H226.512L225.692 26.51H226.102C227.305 24.5967 228.617 22.984 230.038 21.672C231.459 20.3054 232.99 19.2667 234.63 18.556C236.325 17.7907 238.129 17.408 240.042 17.408C240.698 17.408 241.381 17.4627 242.092 17.572C242.857 17.6267 243.459 17.7087 243.896 17.818L241.272 29.462C240.835 29.298 240.261 29.1614 239.55 29.052C238.839 28.888 238.074 28.806 237.254 28.806C235.778 28.806 234.357 29.1067 232.99 29.708C231.623 30.3094 230.366 31.2114 229.218 32.414C228.07 33.562 227.059 35.038 226.184 36.842C225.309 38.5914 224.626 40.6414 224.134 42.992L219.87 63H207.816Z" fill="black"/>
<path d="M242.33 63L251.842 18.228H261.026L260.206 26.51H260.616C261.818 24.5967 263.13 22.984 264.552 21.672C265.973 20.3054 267.504 19.2667 269.144 18.556C270.838 17.7907 272.642 17.408 274.556 17.408C275.212 17.408 275.895 17.4627 276.606 17.572C277.371 17.6267 277.972 17.7087 278.41 17.818L275.786 29.462C275.348 29.298 274.774 29.1614 274.064 29.052C273.353 28.888 272.588 28.806 271.768 28.806C270.292 28.806 268.87 29.1067 267.504 29.708C266.137 30.3094 264.88 31.2114 263.732 32.414C262.584 33.562 261.572 35.038 260.698 36.842C259.823 38.5914 259.14 40.6414 258.648 42.992L254.384 63H242.33Z" fill="black"/>
<path d="M295.086 63.82C291.587 63.82 288.498 63.1914 285.82 61.934C283.196 60.6767 281.118 58.7634 279.588 56.194C278.112 53.6247 277.374 50.3994 277.374 46.518C277.374 42.746 277.893 39.138 278.932 35.694C280.025 32.1954 281.61 29.0794 283.688 26.346C285.82 23.6127 288.444 21.4534 291.56 19.868C294.676 18.228 298.284 17.408 302.384 17.408C307.413 17.408 311.158 18.556 313.618 20.852C316.132 23.148 317.39 26.0727 317.39 29.626C317.39 31.9767 316.843 34.1087 315.75 36.022C314.711 37.9354 313.126 39.5754 310.994 40.942C308.916 42.3087 306.265 43.3747 303.04 44.14C299.814 44.8507 296.015 45.206 291.642 45.206H289.592C289.537 45.534 289.51 45.8347 289.51 46.108C289.51 46.3267 289.51 46.5727 289.51 46.846C289.51 49.2514 290.193 51.1647 291.56 52.586C292.981 54.0074 294.949 54.718 297.464 54.718C299.814 54.718 301.946 54.4447 303.86 53.898C305.773 53.3514 308.042 52.4767 310.666 51.274V60.376C308.315 61.524 305.937 62.3987 303.532 63C301.126 63.5467 298.311 63.82 295.086 63.82ZM292.708 37.088C295.824 37.088 298.338 36.76 300.252 36.104C302.165 35.448 303.559 34.5734 304.434 33.48C305.363 32.332 305.828 31.1294 305.828 29.872C305.828 28.6147 305.445 27.6854 304.68 27.084C303.969 26.428 302.958 26.1 301.646 26.1C300.17 26.1 298.694 26.5647 297.218 27.494C295.742 28.4234 294.43 29.708 293.282 31.348C292.188 32.988 291.396 34.9014 290.904 37.088H292.708Z" fill="black"/>
<path d="M335.646 63.82C333.514 63.82 331.464 63.3007 329.496 62.262C327.583 61.1687 326.025 59.4467 324.822 57.096C323.619 54.6907 323.018 51.4927 323.018 47.502C323.018 44.6047 323.319 41.7074 323.92 38.81C324.576 35.9127 325.478 33.1794 326.626 30.61C327.829 28.0407 329.278 25.772 330.972 23.804C332.667 21.836 334.58 20.278 336.712 19.13C338.899 17.982 341.249 17.408 343.764 17.408C345.568 17.408 347.072 17.7087 348.274 18.31C349.532 18.8567 350.598 19.622 351.472 20.606C352.402 21.59 353.221 22.7107 353.932 23.968H354.26C354.26 23.804 354.287 23.23 354.342 22.246C354.451 21.2074 354.588 20.032 354.752 18.72C354.916 17.3534 355.108 16.1234 355.326 15.03L358.36 0.680019H370.414L357.212 63H348.028L348.766 57.178H348.438C347.4 58.49 346.252 59.638 344.994 60.622C343.737 61.606 342.343 62.3987 340.812 63C339.281 63.5467 337.559 63.82 335.646 63.82ZM340.73 54.062C341.987 54.062 343.108 53.734 344.092 53.078C345.131 52.3674 346.033 51.4654 346.798 50.372C347.618 49.224 348.301 47.9394 348.848 46.518C349.449 45.0967 349.914 43.648 350.242 42.172C350.625 40.696 350.898 39.2747 351.062 37.908C351.281 36.4867 351.39 35.2567 351.39 34.218C351.39 32.086 350.898 30.3914 349.914 29.134C348.93 27.822 347.563 27.166 345.814 27.166C344.611 27.166 343.491 27.5487 342.452 28.314C341.413 29.0794 340.429 30.118 339.5 31.43C338.625 32.742 337.86 34.2454 337.204 35.94C336.603 37.6347 336.111 39.4387 335.728 41.352C335.4 43.2107 335.236 45.0967 335.236 47.01C335.236 49.3607 335.701 51.1374 336.63 52.34C337.614 53.488 338.981 54.062 340.73 54.062Z" fill="black"/>
<path d="M2.5 72H109.5V82H0L2.5 72Z" fill="black"/>
<path d="M156.5 72H354.5L352.5 82H156.5V72Z" fill="black"/>
</svg>
